<?xml version="1.0" encoding="utf-8"?>
<!-- Generator: Adobe Illustrator 24.2.1, SVG Export Plug-In . SVG Version: 6.00 Build 0)  -->
<svg version="1.1" xmlns="http://www.w3.org/2000/svg" xmlns:xlink="http://www.w3.org/1999/xlink" x="0px" y="0px"
	 viewBox="0 0 116.09 80.42" style="enable-background:new 0 0 116.09 80.42;" xml:space="preserve">
<style type="text/css">
	.st0{display:none;}
	.st1{display:inline;fill:#9E9E9E;}
	.st2{fill:#FFFFFF;}
</style>
<g id="Layer_3" class="st0">
	<rect class="st1" width="116.09" height="80.42"/>
</g>
<g id="Layer_2">
	<g>
		<polygon class="st2" points="11.64,38.43 35.51,5.53 27.88,0 3.82,33.16 0,38.43 5.82,46.45 30.47,80.42 38.09,74.89 		"/>
		<polygon class="st2" points="104.45,38.43 80.59,5.53 88.21,0 112.28,33.16 116.09,38.43 110.27,46.45 85.63,80.42 78,74.89 		"/>
		
			<rect x="50.55" y="9.24" transform="matrix(0.9845 0.1756 -0.1756 0.9845 2.9493 -10.6857)" class="st2" width="22.58" height="4.15"/>
		<path class="st2" d="M55.64,39.47c-1.23-0.53-2.09-1.75-2.09-3.18c0-1.91,1.55-3.46,3.46-3.46c1.91,0,3.46,1.55,3.46,3.46
			c0,1.87-1.49,3.39-3.34,3.45l-7,36.1L75.2,39.37l-2.81-22.2L60.98,15.2l-10.82-2.01L38.85,32.85l9.79,42.73L55.64,39.47z"/>
	</g>
</g>
</svg>
