<svg width="467" height="455" viewBox="0 0 467 455" fill="none" xmlns="http://www.w3.org/2000/svg">
<rect y="67" width="384" height="388" fill="#CFD8E0" fill-opacity="0.9"/>
<rect x="80" y="122" width="218" height="278" fill="#CFD8E0"/>
<rect x="413" y="189" width="54" height="93" fill="#CFD8E0" fill-opacity="0.5"/>
<circle cx="441.5" cy="219.5" r="9.5" fill="#CFD8E0"/>
<circle cx="441.5" cy="219.5" r="9.5" fill="#93AFC7"/>
<circle cx="441.5" cy="253.5" r="9.5" fill="#93AFC7"/>
<circle cx="439.5" cy="217.5" r="9.5" fill="white"/>
<circle cx="439.5" cy="251.5" r="9.5" fill="white"/>
<path d="M78.5 122L0 67H383L296.5 122H78.5Z" fill="#CFD8E0" fill-opacity="0.8"/>
<path d="M79.5 400L1 455H384L297.5 400H79.5Z" fill="#93AFC7"/>
<rect x="238" y="3.8147e-06" width="54" height="93" transform="rotate(90 238 3.8147e-06)" fill="#CFD8E0" fill-opacity="0.5"/>
<path d="M176 17L163.01 35.75H188.99L176 17Z" fill="#D39090"/>
<path d="M207 36L194.01 17.25H219.99L207 36Z" fill="#D39090"/>
<path d="M152 216C153 231.5 148.5 267.5 146.5 302.5C145.513 317.5 42.5 319.5 46.5 302.5C50.5 285.5 57.5 239.5 61 216C64.5 192.5 77.5 178.5 106.5 178C135.5 177.5 151 200.5 152 216Z" fill="#4F3424"/>
<path d="M116.5 370.5C116.5 383 118 397.5 120 426M120 426C117.5 433 129.5 428.5 129.5 426C129.5 423.5 121.5 422 120 426Z" stroke="black" stroke-width="6"/>
<path d="M81.3427 428C78.8427 435 90.8426 431.5 90.8426 429C90.8426 426.5 82.8427 424 81.3427 428Z" fill="black"/>
<path d="M89.8426 368C88.8426 378 86.8426 399 81.3427 428M81.3427 428C78.8427 435 90.8426 431.5 90.8426 429C90.8426 426.5 82.8427 424 81.3427 428Z" stroke="black" stroke-width="6"/>
<rect x="102" y="254" width="10" height="25" fill="#DFB084"/>
<circle cx="106.5" cy="223.5" r="37.5" fill="#FED1A8"/>
<circle cx="93" cy="228" r="5" fill="black"/>
<circle cx="127" cy="228" r="5" fill="black"/>
<path d="M134 285C141.5 310 145 331.5 143 363.5" stroke="#FED1A8" stroke-width="10" stroke-linecap="round"/>
<path d="M79.5548 287C72.0548 312 68.5548 333.5 70.5548 365.5" stroke="#FED1A8" stroke-width="10" stroke-linecap="round"/>
<mask id="mask0_138_427" style="mask-type:alpha" maskUnits="userSpaceOnUse" x="31" y="249" width="152" height="111">
<ellipse cx="107" cy="304.5" rx="76" ry="55.5" fill="#DFB084"/>
</mask>
<g mask="url(#mask0_138_427)">
<path d="M134 285C141.5 310 145 331.5 143 363.5" stroke="#7E99B0" stroke-width="10" stroke-linecap="round"/>
<path d="M79.5548 287C72.0548 312 68.5548 333.5 70.5548 365.5" stroke="#7E99B0" stroke-width="10" stroke-linecap="round"/>
</g>
<path d="M76.6228 288.615C76.8323 277.722 85.7233 269 96.6191 269H117.381C128.277 269 137.168 277.722 137.377 288.615L138.804 362.808C138.912 368.405 134.404 373 128.806 373H85.1942C79.5961 373 75.0884 368.405 75.196 362.808L76.6228 288.615Z" fill="#93AFC7"/>
<path d="M67 226.5C70 216 101.5 195.5 110 185C105.5 184.167 93.6 184.1 82 190.5C67.5 198.5 64 237 67 226.5Z" fill="#4F3424"/>
<path d="M148.101 227.187C145.373 216.614 116.729 195.971 109 185.398C113.092 184.559 123.913 184.492 134.461 190.936C147.646 198.992 150.829 237.76 148.101 227.187Z" fill="#4F3424"/>
<path d="M243.5 370.508C243.5 383.008 242 397.508 240 426.008M240 426.008C242.5 433.008 230.5 428.508 230.5 426.008C230.5 423.508 238.5 422.008 240 426.008Z" stroke="black" stroke-width="6"/>
<path d="M278.657 428.008C281.157 435.008 269.157 431.508 269.157 429.008C269.157 426.508 277.157 424.008 278.657 428.008Z" fill="black"/>
<path d="M270.157 368.008C271.157 378.008 273.157 399.008 278.657 428.008M278.657 428.008C281.157 435.008 269.157 431.508 269.157 429.008C269.157 426.508 277.157 424.008 278.657 428.008Z" stroke="black" stroke-width="6"/>
<rect width="10" height="25" transform="matrix(-1 0 0 1 258 254.008)" fill="#DFB084"/>
<circle r="37.5" transform="matrix(-1 0 0 1 253.5 223.508)" fill="#FED1A8"/>
<circle r="5" transform="matrix(-1 0 0 1 267 228.008)" fill="black"/>
<circle r="5" transform="matrix(-1 0 0 1 233 228.008)" fill="black"/>
<path d="M226 285.008C218.5 310.008 215 331.508 217 363.508" stroke="#FED1A8" stroke-width="10" stroke-linecap="round"/>
<path d="M280.445 287.008C287.945 312.008 291.445 333.508 289.445 365.508" stroke="#FED1A8" stroke-width="10" stroke-linecap="round"/>
<mask id="mask1_138_427" style="mask-type:alpha" maskUnits="userSpaceOnUse" x="177" y="249" width="152" height="112">
<ellipse rx="76" ry="55.5" transform="matrix(-1 0 0 1 253 304.508)" fill="#DFB084"/>
</mask>
<g mask="url(#mask1_138_427)">
<path d="M226 285.008C218.5 310.008 215 331.508 217 363.508" stroke="#E4E4E4" stroke-width="10" stroke-linecap="round"/>
<path d="M280.445 287.008C287.945 312.008 291.445 333.508 289.445 365.508" stroke="#E4E4E4" stroke-width="10" stroke-linecap="round"/>
</g>
<path d="M283.377 288.623C283.168 277.73 274.277 269.008 263.381 269.008H242.619C231.723 269.008 222.832 277.73 222.623 288.623L221.196 362.816C221.088 368.413 225.596 373.008 231.194 373.008H274.806C280.404 373.008 284.912 368.413 284.804 362.816L283.377 288.623Z" fill="#F5F5F5"/>
<path d="M276.472 217.189C276.286 222.718 278.463 233.159 286.445 241.245C286.853 241.659 287.528 241.621 287.898 241.174C290.698 237.791 295.33 232.031 295.326 224.694C295.326 224.375 295.474 224.067 295.718 223.861C304.966 216.087 296.97 201.566 292.716 197.703C292.289 197.316 292.169 196.646 292.649 196.326C295.26 194.583 301.129 195.459 301.919 193.83C301.94 193.786 301.954 193.738 301.963 193.69C302.539 190.636 296.235 188.136 291.5 188.618C290.399 188.73 287.256 186.796 287.193 185.691C286.448 172.701 275.662 168.553 269.018 168.049C268.482 168.008 268.038 168.425 268.083 168.961C268.229 170.695 268.931 173.848 271.008 177.593C265.968 170.689 243.406 163.786 232.824 172.68C232.087 173.299 232.771 175.052 233.696 175.319C233.925 175.385 234.157 175.456 234.389 175.532C235.351 175.844 235.052 176.993 234.062 177.204C226.907 178.73 216.965 186.081 208.777 181.822C208.193 181.518 207.445 181.767 207.259 182.398C203.486 195.172 208.918 206.535 214.02 210.146C214.326 210.362 214.51 210.713 214.498 211.087C214.349 215.535 215.757 224.238 222.283 229.692C222.95 230.249 223.895 229.652 223.818 228.786C221.995 208.541 242.923 201.861 254.83 200.951C255.365 200.91 255.823 201.312 255.778 201.846C255.606 203.859 254.456 207.282 250.749 210.2C250.519 210.381 250.354 210.654 250.41 210.943C251.042 214.177 260.624 216.042 273.565 214.15C274.587 214 276.507 216.156 276.472 217.189Z" fill="#4F3424" stroke="#593F2C"/>
</svg>
