<svg width="315" height="278" viewBox="0 0 315 278" fill="none" xmlns="http://www.w3.org/2000/svg">
<circle cx="227" cy="271" r="7" fill="black"/>
<circle cx="146" cy="252" r="7" fill="black"/>
<path d="M85.5 203.508C85.5 216.008 87 230.508 89 259.008M89 259.008C86.5 266.008 98.5 261.508 98.5 259.008C98.5 256.508 90.5 255.008 89 259.008Z" stroke="black" stroke-width="6"/>
<path d="M50.3427 261.008C47.8427 268.008 59.8426 264.508 59.8426 262.008C59.8426 259.508 51.8427 257.008 50.3427 261.008Z" fill="black"/>
<path d="M58.8426 201.008C57.8426 211.008 55.8426 232.008 50.3427 261.008M50.3427 261.008C47.8427 268.008 59.8426 264.508 59.8426 262.008C59.8426 259.508 51.8427 257.008 50.3427 261.008Z" stroke="black" stroke-width="6"/>
<rect x="71" y="87.008" width="10" height="25" fill="#DFB084"/>
<circle cx="75.5" cy="56.508" r="37.5" fill="#FED1A8"/>
<circle cx="62" cy="51.008" r="5" fill="black"/>
<circle cx="96" cy="51.008" r="5" fill="black"/>
<path d="M103 118.008C110.5 143.008 114 164.508 112 196.508" stroke="#FED1A8" stroke-width="10" stroke-linecap="round"/>
<path d="M48.5548 120.008C41.0548 145.008 37.5548 166.508 39.5548 198.508" stroke="#FED1A8" stroke-width="10" stroke-linecap="round"/>
<mask id="mask0_138_476" style="mask-type:alpha" maskUnits="userSpaceOnUse" x="0" y="82" width="152" height="112">
<ellipse cx="76" cy="137.508" rx="76" ry="55.5" fill="#DFB084"/>
</mask>
<g mask="url(#mask0_138_476)">
<path d="M103 118.008C110.5 143.008 114 164.508 112 196.508" stroke="#E4E4E4" stroke-width="10" stroke-linecap="round"/>
<path d="M48.5548 120.008C41.0548 145.008 37.5548 166.508 39.5548 198.508" stroke="#E4E4E4" stroke-width="10" stroke-linecap="round"/>
</g>
<path d="M45.6228 121.623C45.8323 110.73 54.7233 102.008 65.6191 102.008H86.3809C97.2767 102.008 106.168 110.73 106.377 121.623L107.804 195.816C107.912 201.413 103.404 206.008 97.8058 206.008H54.1942C48.5961 206.008 44.0884 201.413 44.196 195.816L45.6228 121.623Z" fill="#F5F5F5"/>
<path d="M52.5375 44.9805C52.4773 50.0023 50.1201 58.6333 42.5047 65.3814C42.1078 65.7332 41.503 65.6995 41.1391 65.3137C38.3575 62.3639 33.7193 57.3259 33.6745 50.9021C33.6721 50.5599 33.5018 50.2319 33.2276 50.0272C24.164 43.2619 31.8688 30.7492 36.1457 27.2031C36.6262 26.8047 36.7337 26.0756 36.1806 25.7864C33.5008 24.3857 27.8898 25.0848 27.0885 23.7018C27.0613 23.6549 27.0441 23.6016 27.0333 23.5485C26.4737 20.8065 33.0947 18.5785 37.8522 19.1469C38.9296 19.2757 41.7378 17.4923 41.8161 16.4101C42.634 5.0954 53.3754 1.48009 59.9932 1.04212C60.5247 1.00695 60.9634 1.41791 60.9061 1.94741C60.7391 3.4911 60.0229 6.20989 57.9922 9.42593C62.9868 3.41646 85.1927 -2.59301 95.8899 4.90505C96.6916 5.46696 96.0751 7.22641 95.128 7.47418C95.0809 7.48649 95.0338 7.49897 94.9866 7.51162C93.9879 7.77933 94.2397 8.93836 95.2526 9.14642C102.407 10.6161 112.219 16.8685 120.304 13.1036C120.863 12.8432 121.55 13.0777 121.746 13.6623C125.496 24.8357 120.119 34.7769 115.036 37.985C114.699 38.1976 114.494 38.5685 114.506 38.9666C114.622 42.91 113.176 50.4533 106.709 55.1947C106.021 55.6985 105.119 55.0727 105.199 54.2243C106.873 36.5643 86.0176 30.734 74.1515 29.9419C73.6239 29.9067 73.1723 30.3016 73.2326 30.8269C73.436 32.599 74.6015 35.5278 78.2085 38.0379C78.4645 38.216 78.6543 38.5047 78.5681 38.8044C77.7739 41.5675 68.4224 43.1527 55.7907 41.5818C54.7439 41.4516 52.5501 43.9258 52.5375 44.9805Z" fill="#4F3424" stroke="#593F2C"/>
<ellipse cx="81" cy="73.5" rx="11" ry="13.5" fill="#504646"/>
<mask id="mask1_138_476" style="mask-type:alpha" maskUnits="userSpaceOnUse" x="70" y="60" width="22" height="27">
<ellipse cx="81" cy="73.5" rx="11" ry="13.5" fill="#504646"/>
</mask>
<g mask="url(#mask1_138_476)">
<ellipse cx="78" cy="80.5" rx="11" ry="8.5" fill="#D39090"/>
</g>
<path d="M229.5 203.508C229.5 216.008 228 230.508 226 259.008M226 259.008C228.5 266.008 216.5 261.508 216.5 259.008C216.5 256.508 224.5 255.008 226 259.008Z" stroke="black" stroke-width="6"/>
<path d="M264.657 261.008C267.157 268.008 255.157 264.508 255.157 262.008C255.157 259.508 263.157 257.008 264.657 261.008Z" fill="black"/>
<path d="M256.157 201.008C257.157 211.008 259.157 232.008 264.657 261.008M264.657 261.008C267.157 268.008 255.157 264.508 255.157 262.008C255.157 259.508 263.157 257.008 264.657 261.008Z" stroke="black" stroke-width="6"/>
<rect width="10" height="25" transform="matrix(-1 0 0 1 244 87.0081)" fill="#DFB084"/>
<circle r="37.5" transform="matrix(-1 0 0 1 239.5 56.5081)" fill="#FED1A8"/>
<circle r="5" transform="matrix(-1 0 0 1 253 61.0081)" fill="black"/>
<circle r="5" transform="matrix(-1 0 0 1 219 61.0081)" fill="black"/>
<path d="M212 118.008C204.5 143.008 160.5 127 150 97.0001" stroke="#FED1A8" stroke-width="10" stroke-linecap="round"/>
<path d="M266.445 120.008C273.945 145.008 277.445 166.508 275.445 198.508" stroke="#FED1A8" stroke-width="10" stroke-linecap="round"/>
<mask id="mask2_138_476" style="mask-type:alpha" maskUnits="userSpaceOnUse" x="115" y="82" width="200" height="112">
<path d="M115 141.5C115 172.152 197.026 193.008 239 193.008C280.974 193.008 315 168.16 315 137.508C315 106.856 280.974 82.0081 239 82.0081C197.026 82.0081 115 110.848 115 141.5Z" fill="#DFB084"/>
</mask>
<g mask="url(#mask2_138_476)">
<path d="M212 118.008C204.5 143.008 160 127 151 97.5" stroke="#E4E4E4" stroke-width="10" stroke-linecap="round"/>
<path d="M266.445 120.008C273.945 145.008 277.445 166.508 275.445 198.508" stroke="#E4E4E4" stroke-width="10" stroke-linecap="round"/>
</g>
<path d="M269.377 121.623C269.168 110.73 260.277 102.008 249.381 102.008H228.619C217.723 102.008 208.832 110.73 208.623 121.624L207.196 195.816C207.088 201.413 211.596 206.008 217.194 206.008H260.806C266.404 206.008 270.912 201.413 270.804 195.816L269.377 121.623Z" fill="#F5F5F5"/>
<path d="M269 219V146.5C258.709 137.509 254.597 127.819 253.006 119.5H223.994C222.403 127.819 218.291 137.509 208 146.5V219H239.552H269Z" fill="#D39090"/>
<path d="M252.172 102C252.172 105.769 251.589 112.09 253.006 119.5M224.828 102C224.828 105.769 225.411 112.09 223.994 119.5M253.006 119.5C254.597 127.819 258.709 137.509 269 146.5C269 159.7 269 210.333 269 219H239.552H208V146.5C218.291 137.509 222.403 127.819 223.994 119.5M253.006 119.5H223.994" stroke="#D39090" stroke-width="6"/>
<path d="M262 30.5C267 35 277.5 50.5 274 72C292 38.0001 265.5 12.5 237.5 12.5C209.5 12.5 201.5 35.5 202 40.5C202.5 45.5 207.5 57 207.5 47C207.5 37.0001 229 23 225 30.5C221 38.0001 233.5 56.5 233 47C232.5 37.5 257 26 262 30.5Z" fill="black"/>
<path d="M131.604 87.3999C132.601 84.4338 135.444 82.4892 138.57 82.6368L148.926 83.126C150.426 83.1969 151.642 84.3658 151.773 85.8618L152.677 96.2195C152.841 98.0939 151.258 99.6545 149.386 99.4651L132.007 97.7069C130.092 97.5131 128.852 95.5915 129.465 93.7668L131.604 87.3999Z" fill="#FFE071"/>
<mask id="mask3_138_476" style="mask-type:alpha" maskUnits="userSpaceOnUse" x="129" y="82" width="24" height="18">
<path d="M131.604 87.3999C132.601 84.4338 135.444 82.4892 138.57 82.6368L148.926 83.126C150.426 83.1969 151.642 84.3658 151.773 85.8618L152.677 96.2195C152.841 98.0939 151.258 99.6545 149.386 99.4651L132.007 97.7069C130.092 97.5131 128.852 95.5915 129.465 93.7668L131.604 87.3999Z" fill="#FFE071"/>
</mask>
<g mask="url(#mask3_138_476)">
<circle cx="141.609" cy="97.9117" r="3" transform="rotate(-62.7842 141.609 97.9117)" fill="#E6B071"/>
<circle cx="147.987" cy="87.6976" r="3" transform="rotate(-62.7842 147.987 87.6976)" fill="#E6B071"/>
<circle cx="135.003" cy="88.8918" r="2" transform="rotate(-62.7842 135.003 88.8918)" fill="#E6B071"/>
<circle cx="149.232" cy="96.2093" r="2" transform="rotate(-62.7842 149.232 96.2093)" fill="#E6B071"/>
</g>
<path d="M136 173L219 193V269L136 249V173Z" fill="#D9D9D9"/>
<path d="M136 173L219 193L256 183L173 163L136 173Z" fill="#F5F5F5"/>
<path d="M219 193L256 183V259L219 269V193Z" fill="#D9D9D9"/>
<ellipse cx="179.5" cy="171" rx="26.5" ry="8" fill="#F9C664"/>
<rect x="153" y="156" width="53" height="15" fill="#F9C664"/>
<circle cx="176.275" cy="174.275" r="1.68912" transform="rotate(-62.7842 176.275 174.275)" fill="#E6B071"/>
<circle cx="186.275" cy="167.275" r="1.68912" transform="rotate(-62.7842 186.275 167.275)" fill="#E6B071"/>
<circle cx="196.275" cy="171.275" r="1.68912" transform="rotate(-62.7842 196.275 171.275)" fill="#E6B071"/>
<circle cx="167.04" cy="172.04" r="3" transform="rotate(-62.7842 167.04 172.04)" fill="#E6B071"/>
<circle cx="201.04" cy="167.04" r="3" transform="rotate(-62.7842 201.04 167.04)" fill="#E6B071"/>
<circle cx="156.04" cy="166.04" r="3" transform="rotate(-62.7842 156.04 166.04)" fill="#E6B071"/>
<mask id="mask4_138_476" style="mask-type:alpha" maskUnits="userSpaceOnUse" x="153" y="148" width="53" height="16">
<ellipse cx="179.5" cy="156" rx="26.5" ry="8" fill="#FFE071"/>
</mask>
<g mask="url(#mask4_138_476)">
<ellipse cx="179.5" cy="156" rx="26.5" ry="8" fill="#FFE071"/>
<circle cx="160.04" cy="152.04" r="3" transform="rotate(-62.7842 160.04 152.04)" fill="#E6B071"/>
<circle cx="175.04" cy="159.04" r="3" transform="rotate(-62.7842 175.04 159.04)" fill="#E6B071"/>
<circle cx="180.275" cy="151.275" r="1.68912" transform="rotate(-62.7842 180.275 151.275)" fill="#E6B071"/>
<circle cx="188.04" cy="153.04" r="3" transform="rotate(-62.7842 188.04 153.04)" fill="#E6B071"/>
<circle cx="201.04" cy="152.04" r="3" transform="rotate(-62.7842 201.04 152.04)" fill="#E6B071"/>
</g>
</svg>
