<svg width="365" height="285" viewBox="0 0 365 285" fill="none" xmlns="http://www.w3.org/2000/svg">
<circle r="49.242" transform="matrix(-1 0 0 1 256.314 105.758)" fill="#FED1A8"/>
<circle r="6.5656" transform="matrix(-1 0 0 1 274.041 124.798)" fill="black"/>
<circle r="6.5656" transform="matrix(-1 0 0 1 229.395 124.798)" fill="black"/>
<path d="M286.493 89.2976C286.14 95.6457 288.973 108.093 299.862 117.605C300.261 117.954 300.867 117.921 301.231 117.535C304.88 113.669 311.26 106.9 311.236 98.2252C311.235 97.883 311.407 97.5526 311.683 97.3507C324.012 88.3381 313.269 71.3767 307.702 67.0451C307.209 66.6619 307.088 65.931 307.619 65.6022C310.998 63.5078 318.859 64.5618 319.896 62.6573C319.922 62.6098 319.94 62.5565 319.951 62.5036C320.796 58.595 310.517 55.4721 304.265 56.9588C303.209 57.2098 300.621 55.6967 300.608 54.6118C300.407 38.39 285.329 33.4096 276.383 32.9067C275.852 32.8768 275.407 33.2865 275.449 33.8174C275.606 35.7805 276.502 39.4967 279.304 43.9336C272.618 35.8893 242.446 27.845 228.739 38.5905C227.968 39.1945 228.615 40.9173 229.57 41.1337C230.322 41.304 231.125 41.5186 231.896 41.7579C232.884 42.0641 232.598 43.2008 231.576 43.3529C222.007 44.7753 208.285 54.1045 197.149 48.6037C196.596 48.3306 195.907 48.5684 195.705 49.1508C190.508 64.0915 197.795 77.4187 204.573 81.5436C204.913 81.7506 205.117 82.1215 205.101 82.5195C204.889 87.7451 206.805 98.1511 215.885 104.427C216.586 104.911 217.487 104.281 217.387 103.435C214.57 79.5677 242.705 71.8256 258.382 70.8543C258.91 70.8216 259.358 71.2152 259.319 71.7425C259.149 74.0484 257.674 78.1344 252.631 81.5916C252.374 81.768 252.187 82.055 252.248 82.3609C253.011 86.1774 266.027 88.3599 283.505 85.9876C284.55 85.8458 286.552 88.2444 286.493 89.2976Z" fill="#4F3424" stroke="#593F2C"/>
<path d="M322.492 6.87442C325.326 -1.85338 341.186 6.60462 337.102 14.9368C333.019 23.269 321.384 23.0233 320.61 29.6531" stroke="#D39090" stroke-width="5" stroke-linecap="round"/>
<circle cx="318.934" cy="39.5117" r="3" transform="rotate(-27.2242 318.934 39.5117)" fill="#D39090"/>
<path d="M350.283 41.737C356.836 35.313 366.977 50.153 359.5 55.6477C352.023 61.1425 341.824 55.5377 338.068 61.0556" stroke="#93AFC7" stroke-width="5" stroke-linecap="round"/>
<circle cx="332.019" cy="69.0181" r="3" transform="rotate(0.356684 332.019 69.0181)" fill="#93AFC7"/>
<path d="M35.559 153.115L299.32 205.3L263.761 252.632L4.75468e-05 200.447L35.559 153.115Z" fill="#D9D9D9"/>
<rect x="282" y="187" width="17" height="19" fill="#D9D9D9"/>
<rect y="182" width="17" height="19" fill="#D9D9D9"/>
<path d="M35.559 135.368L299.32 187.553L263.761 234.885L4.75468e-05 182.7L35.559 135.368Z" fill="#F5F5F5"/>
<path d="M155.849 176.786L223.739 190.175L211.891 205.947L144 192.558L155.849 176.786Z" fill="white"/>
<path d="M65.9778 162.903C65.9778 165.428 66.4184 168.544 65.7459 170.898C64.759 174.352 69.9063 170.61 70.944 170.216C72.7952 169.514 74.413 168.104 76.1693 167.324C77.5596 166.706 78.8543 165.797 80.2214 165.113" stroke="black" stroke-width="3" stroke-linecap="round"/>
<path d="M88.5709 167.078C88.4707 167.98 87.074 168.837 86.5517 169.534C85.6385 170.751 84.6383 171.969 83.8503 173.272C83.1923 174.36 81.8762 176.074 80.7124 176.656" stroke="black" stroke-width="3" stroke-linecap="round"/>
<path d="M90.5356 179.357C90.5356 179.414 92.6509 177.261 92.9914 176.901C93.9541 175.885 94.8231 174.824 95.8156 173.831C96.6072 173.04 97.4405 172.171 97.903 171.13C98.17 170.529 99.0592 169.078 99.622 168.797" stroke="black" stroke-width="3" stroke-linecap="round"/>
<path d="M91.5457 179.512C97.4369 179.512 105.282 180.119 109.312 174.938C112.311 171.082 103.744 168.842 101.37 167.655" stroke="black" stroke-width="3" stroke-linecap="round"/>
<path d="M182 184L173 197" stroke="#D39090" stroke-width="3" stroke-linecap="round"/>
<path d="M194 187L186 200" stroke="#D39090" stroke-width="3" stroke-linecap="round"/>
<path d="M45.3864 155.917C44.8945 155.868 44.4968 155.544 43.9925 155.5C43.22 155.433 42.4199 155.488 41.6455 155.488C40.3629 155.488 38.9137 155.778 37.988 156.775C37.0088 157.829 36.0857 158.435 35.4146 159.777C34.879 160.849 34.4496 161.994 34.4496 163.196C34.4496 163.906 34.2583 164.899 34.6641 165.52C35.143 166.252 35.979 166.882 36.5941 167.497C37.8219 168.725 39.4878 168.57 41.0975 168.57" stroke="black" stroke-width="3" stroke-linecap="round"/>
<path d="M53.7498 160.421C52.2069 160.421 50.1862 162.264 49.58 163.649C49.0873 164.775 49.2464 166.069 49.2464 167.271C49.2464 168.55 50.9953 169.668 52.1415 169.844C53.979 170.127 54.9058 170.115 56.5376 169.118C58.3254 168.025 60.9537 165.64 59.802 163.208C58.8976 161.299 57.7752 159.134 55.4654 159.134" stroke="black" stroke-width="3" stroke-linecap="round"/>
</svg>
