<svg width="363" height="281" viewBox="0 0 363 281" fill="none" xmlns="http://www.w3.org/2000/svg">
<rect width="44.691" height="82.9975" rx="2" transform="matrix(-1 0 0 1 214.334 76.6132)" fill="#F9C664"/>
<rect x="20.9774" y="57.4597" width="44.691" height="136.809" rx="2" fill="#CFD8E0" fill-opacity="0.9"/>
<rect width="49.2513" height="95.7663" rx="2" transform="matrix(-1 0 0 1 227.103 123.128)" fill="#CFD8E0" fill-opacity="0.9"/>
<rect width="49.2513" height="95.7663" rx="2" transform="matrix(1 0 0 -1 80.2614 172.379)" fill="#CFD8E0" fill-opacity="0.9"/>
<rect x="37.3945" y="98.5026" width="44.691" height="95.7663" rx="2" fill="#E4E4E4"/>
<rect width="44.691" height="95.7663" rx="2" transform="matrix(-1 0 0 1 197.917 106.711)" fill="#E4E4E4"/>
<rect width="44.691" height="95.7663" rx="2" transform="matrix(1 0 0 -1 109.447 188.797)" fill="#E4E4E4"/>
<rect x="27.3618" y="141.369" width="44.691" height="82.9975" rx="2" fill="#F9C664"/>
<rect width="44.691" height="82.9975" rx="2" transform="matrix(1 0 0 -1 111.271 218.894)" fill="#F9C664"/>
<rect x="325.605" y="168.731" width="44.691" height="82.9975" rx="2" transform="rotate(-180 325.605 168.731)" fill="#F9C664"/>
<rect x="352.967" y="217.07" width="49.2513" height="95.7663" rx="2" transform="rotate(-180 352.967 217.07)" fill="#CFD8E0" fill-opacity="0.9"/>
<rect x="49.2512" y="204.766" width="49.2513" height="95.7663" rx="2" transform="rotate(-180 49.2512 204.766)" fill="#CFD8E0" fill-opacity="0.9"/>
<rect x="207.95" y="101.239" width="49.2513" height="95.7663" rx="2" fill="#CFD8E0" fill-opacity="0.9"/>
<rect x="325.605" y="203.389" width="44.691" height="95.7663" rx="2" transform="rotate(-180 325.605 203.389)" fill="#E4E4E4"/>
<rect x="237.136" y="121.304" width="44.691" height="95.7663" rx="2" fill="#E4E4E4"/>
<path d="M264.676 44.7943C253.588 100.233 255.362 123.739 266.893 179.177" stroke="black" stroke-width="3" stroke-linecap="round"/>
<path d="M241.017 47.4553C252.104 102.894 249.887 123.739 238.356 179.177" stroke="black" stroke-width="3" stroke-linecap="round"/>
<path d="M252.701 44.3507L252.701 178.29" stroke="black" stroke-width="3" stroke-linecap="round"/>
<path d="M252.701 9.7572V20.4014" stroke="black" stroke-width="3" stroke-linecap="round"/>
<ellipse cx="253.145" cy="179.621" rx="18.1838" ry="1.77403" fill="black"/>
<ellipse cx="253.145" cy="185.83" rx="20.8449" ry="1.77403" fill="black" fill-opacity="0.5"/>
<ellipse cx="253.145" cy="192.039" rx="25.2799" ry="1.77403" fill="black" fill-opacity="0.5"/>
<path d="M273.99 29.2715C273.99 30.2512 264.657 31.0455 253.145 31.0455C241.632 31.0455 232.3 30.2512 232.3 29.2715C232.3 28.2917 241.632 27.4974 253.145 27.4974C267.337 27.4974 273.99 28.2917 273.99 29.2715Z" fill="black" fill-opacity="0.5"/>
<ellipse cx="253.145" cy="23.9494" rx="10.2007" ry="1.77403" fill="black" fill-opacity="0.5"/>
<circle cx="252.701" cy="3.54806" r="3.54806" fill="black" fill-opacity="0.5"/>
<ellipse cx="253.145" cy="36.3676" rx="30.602" ry="3.54806" fill="black" fill-opacity="0.5"/>
<ellipse cx="253.145" cy="44.3508" rx="20.8449" ry="1.77403" fill="black"/>
<rect y="135.897" width="363" height="95.7663" fill="url(#paint0_linear_138_569)"/>
<rect y="135.897" width="363" height="95.7663" fill="url(#paint1_linear_138_569)"/>
<rect x="37" y="77" width="161" height="155" fill="url(#paint2_linear_138_569)"/>
<path d="M115.234 153.469C115.806 162.338 113.231 182.936 112.087 202.963C111.522 211.545 52.5801 212.69 54.8688 202.963C57.1575 193.236 61.1628 166.915 63.1654 153.469C65.168 140.023 72.6064 132.012 89.1996 131.726C105.793 131.44 114.662 144.6 115.234 153.469Z" fill="#4F3424"/>
<path d="M94.9213 241.871C94.9213 249.023 95.7795 257.32 96.9239 273.627M96.9239 273.627C95.4934 277.632 102.36 275.057 102.36 273.627C102.36 272.196 97.7822 271.338 96.9239 273.627Z" stroke="black" stroke-width="6"/>
<path d="M74.8051 274.771C73.3746 278.776 80.2407 276.774 80.2407 275.343C80.2407 273.913 75.6633 272.482 74.8051 274.771Z" fill="black"/>
<path d="M79.6686 240.44C79.0964 246.162 77.952 258.178 74.8051 274.771M74.8051 274.771C73.3746 278.776 80.2407 276.774 80.2407 275.343C80.2407 273.913 75.6633 272.482 74.8051 274.771Z" stroke="black" stroke-width="6"/>
<rect x="86.6248" y="175.212" width="5.72179" height="14.3045" fill="#DFB084"/>
<circle cx="89.1995" cy="157.761" r="21.4567" fill="#FED1A8"/>
<circle cx="81.4752" cy="160.335" r="2.8609" fill="black"/>
<circle cx="100.929" cy="160.335" r="2.8609" fill="black"/>
<path d="M103.79 192.373C109.055 210.048 111.311 219.03 118.667 237.575" stroke="#FED1A8" stroke-width="10" stroke-linecap="round"/>
<path d="M73.7821 194.094C69.4908 208.398 67.4881 220.7 68.6325 239.01" stroke="#FED1A8" stroke-width="10" stroke-linecap="round"/>
<mask id="mask0_138_569" style="mask-type:alpha" maskUnits="userSpaceOnUse" x="46" y="172" width="87" height="64">
<ellipse cx="89.4856" cy="204.107" rx="43.4856" ry="31.7559" fill="#DFB084"/>
</mask>
<g mask="url(#mask0_138_569)">
<path d="M103.79 192.373C109.055 210.048 111.687 219.61 118.667 237.575" stroke="#7E99B0" stroke-width="11" stroke-linecap="round"/>
<path d="M73.7821 194.094C69.4908 208.398 67.4881 220.7 68.6325 239.01" stroke="#7E99B0" stroke-width="10" stroke-linecap="round"/>
</g>
<path d="M71.9902 200.957C72.1735 191.426 79.9525 183.795 89.4856 183.795V183.795C99.0187 183.795 106.798 191.426 106.981 200.957L107.599 233.109C107.707 238.706 103.199 243.301 97.6012 243.301H81.3701C75.772 243.301 71.2643 238.706 71.3719 233.109L71.9902 200.957Z" fill="#93AFC7"/>
<path d="M66.5984 159.477C68.315 153.469 86.3386 141.739 91.2021 135.732C88.6273 135.255 81.8184 135.217 75.1811 138.879C66.8845 143.456 64.8819 165.485 66.5984 159.477Z" fill="#4F3424"/>
<path d="M113.003 159.87C111.442 153.82 95.0524 142.009 90.6299 135.959C92.9712 135.479 99.1627 135.441 105.198 139.128C112.742 143.738 114.563 165.92 113.003 159.87Z" fill="#4F3424"/>
<path d="M153.856 241.871C153.856 249.023 154.714 257.32 155.858 273.627M155.858 273.627C154.428 277.632 161.294 275.057 161.294 273.627C161.294 272.196 156.717 271.338 155.858 273.627Z" stroke="black" stroke-width="6"/>
<path d="M133.74 274.771C132.309 278.776 139.175 276.774 139.175 275.343C139.175 273.913 134.598 272.482 133.74 274.771Z" fill="black"/>
<path d="M138.603 240.44C138.031 246.162 136.886 258.178 133.74 274.771M133.74 274.771C132.309 278.776 139.175 276.774 139.175 275.343C139.175 273.913 134.598 272.482 133.74 274.771Z" stroke="black" stroke-width="6"/>
<rect x="145.559" y="175.212" width="5.72179" height="14.3045" fill="#DFB084"/>
<circle cx="148.134" cy="157.761" r="21.4567" fill="#FED1A8"/>
<circle cx="140.41" cy="160.335" r="2.8609" fill="black"/>
<circle cx="159.864" cy="160.335" r="2.8609" fill="black"/>
<path d="M163.869 192.95C168.16 207.254 170.163 219.556 169.019 237.866" stroke="#FED1A8" stroke-width="10" stroke-linecap="round"/>
<path d="M132.971 194.089C129.538 213.257 126.391 219.551 120.575 237.575" stroke="#FED1A8" stroke-width="10" stroke-linecap="round"/>
<mask id="mask1_138_569" style="mask-type:alpha" maskUnits="userSpaceOnUse" x="104" y="172" width="88" height="64">
<ellipse cx="148.42" cy="204.107" rx="43.4856" ry="31.7559" fill="#DFB084"/>
</mask>
<g mask="url(#mask1_138_569)">
<path d="M163.869 192.95C168.16 207.254 170.163 219.556 169.019 237.866" stroke="#E4E4E4" stroke-width="10" stroke-linecap="round"/>
<path d="M132.971 194.089C129.252 213.543 125.533 224.129 120.575 237.575" stroke="#E4E4E4" stroke-width="11" stroke-linecap="round"/>
</g>
<path d="M130.925 200.957C131.108 191.426 138.887 183.795 148.42 183.795V183.795C157.953 183.795 165.732 191.426 165.916 200.957L166.534 233.109C166.641 238.706 162.134 243.301 156.536 243.301H140.305C134.706 243.301 130.199 238.706 130.306 233.109L130.925 200.957Z" fill="#F5F5F5"/>
<path d="M134.935 155.802C134.639 159.034 133.226 163.727 129.602 167.578C129.205 168.001 128.527 167.963 128.159 167.513C126.577 165.579 124.286 162.506 124.204 158.656C124.198 158.337 124.052 158.033 123.814 157.821C119 153.534 122.915 145.881 125.372 143.312C125.771 142.895 125.862 142.223 125.334 141.992C123.729 141.29 120.908 141.628 120.444 140.807C120.42 140.765 120.407 140.716 120.399 140.668C120.194 139.401 122.052 138.306 124.118 137.915C125.205 137.71 128.922 134.943 129.189 133.869C130.543 128.421 135.457 126.442 138.845 126.066C139.379 126.007 139.819 126.426 139.743 126.958C139.594 127.997 139.157 129.613 138.116 131.489C140.977 127.57 153.703 123.652 159.818 128.557C160.294 128.94 160.042 130.021 159.455 130.191C158.838 130.37 158.851 131.167 159.476 131.316C163.405 132.252 168.72 136.015 173.219 134.144C173.826 133.892 174.576 134.141 174.742 134.777C176.553 141.693 173.715 147.796 170.932 149.961C170.636 150.19 170.452 150.54 170.456 150.915C170.477 153.345 169.723 157.63 166.71 160.645C166.096 161.259 165.151 160.682 165.175 159.814C165.479 149.202 154.453 145.509 147.78 144.888C147.247 144.839 146.791 145.245 146.885 145.773C147.085 146.911 147.779 148.564 149.553 150.021C149.78 150.208 149.954 150.487 149.846 150.76C149.212 152.357 144.612 153.296 138.299 152.615C137.272 152.504 135.029 154.773 134.935 155.802Z" fill="#4F3424" stroke="#593F2C"/>
<defs>
<linearGradient id="paint0_linear_138_569" x1="181.5" y1="135.897" x2="181.5" y2="231.663" gradientUnits="userSpaceOnUse">
<stop stop-color="white" stop-opacity="0"/>
<stop offset="1" stop-color="white"/>
</linearGradient>
<linearGradient id="paint1_linear_138_569" x1="181.5" y1="135.897" x2="181.5" y2="231.663" gradientUnits="userSpaceOnUse">
<stop stop-color="white" stop-opacity="0"/>
<stop offset="1" stop-color="white"/>
</linearGradient>
<linearGradient id="paint2_linear_138_569" x1="117.5" y1="77" x2="117.5" y2="232" gradientUnits="userSpaceOnUse">
<stop stop-color="white" stop-opacity="0"/>
<stop offset="1" stop-color="white"/>
</linearGradient>
</defs>
</svg>
