<svg width="499" height="481" viewBox="0 0 499 481" fill="none" xmlns="http://www.w3.org/2000/svg">
<path d="M38 321H91.5L92 70.4389L88.5 57.3574L85 70.4389L67.5 22.1379V0H63V22.1379L43 73.4577V56.3511L38 73.4577V321Z" fill="#D9D9D9"/>
<mask id="mask0_138_635" style="mask-type:alpha" maskUnits="userSpaceOnUse" x="38" y="0" width="54" height="321">
<path d="M38 321H91.5L92 70.4389L88.5 57.3574L85 70.4389L67.5 22.1379V0H63V22.1379L43 73.4577V56.3511L38 73.4577V321Z" fill="#D9D9D9"/>
</mask>
<g mask="url(#mask0_138_635)">
<path d="M58.5 73.5L70 11.5V-11H58.5L26.5 67L31 339H58.5V73.5Z" fill="#F5F5F5"/>
</g>
<path d="M416.5 320.5H123V173H416.5V320.5Z" fill="#F5F5F5"/>
<path d="M417 173H123L173 148H367L417 173Z" fill="#D39090"/>
<rect x="137" y="197" width="27" height="63" fill="#D9D9D9"/>
<rect x="176" y="197" width="27" height="63" fill="#D9D9D9"/>
<rect x="215" y="197" width="27" height="63" fill="#D9D9D9"/>
<rect x="254" y="197" width="27" height="63" fill="#D9D9D9"/>
<rect x="293" y="197" width="27" height="63" fill="#D9D9D9"/>
<rect x="332" y="197" width="27" height="63" fill="#D9D9D9"/>
<rect x="371" y="197" width="27" height="63" fill="#D9D9D9"/>
<rect x="119" y="173" width="302" height="9" fill="#D9D9D9"/>
<rect x="119" y="275" width="302" height="9" fill="#D9D9D9"/>
<rect y="192" width="499" height="132" fill="url(#paint0_linear_138_635)"/>
<path d="M124.328 329.118C140.301 321.14 180.447 309.841 218.417 296.339C234.747 290.69 282.841 398.925 263.047 402.274C243.253 405.624 191.398 418.738 164.941 425.519C138.484 432.299 117.852 424.776 104.379 394.278C90.9066 363.78 108.354 337.095 124.328 329.118Z" fill="#4F3424"/>
<circle cx="152.58" cy="373.971" r="43.1074" transform="rotate(-112.846 152.58 373.971)" fill="#FED1A8"/>
<path d="M173.387 414.477C160.925 415.985 125.149 391.764 110.232 387.446C111.358 392.585 116.598 405.221 128.555 414.653C143.502 426.443 185.849 412.969 173.387 414.477Z" fill="#4F3424"/>
<path d="M137.919 328.256C127.935 335.864 118.851 375.421 111.1 388.328C108.385 384.367 103.485 372.934 105.604 358.884C108.253 341.321 147.902 320.647 137.919 328.256Z" fill="#4F3424"/>
<path d="M283.473 371.565L213.37 395.472C208.342 397.187 202.851 394.671 200.867 389.744L188.852 359.916C187.12 355.617 188.57 350.691 192.354 348.015L248.677 308.188C253.516 304.766 260.251 306.279 263.162 311.441L288.956 357.188C292.03 362.64 289.397 369.544 283.473 371.565Z" fill="#7E99B0"/>
<path d="M283.473 361.565L213.37 385.472C208.342 387.187 202.851 384.671 200.867 379.744L188.852 349.916C187.12 345.617 188.57 340.691 192.354 338.015L248.677 298.188C253.516 294.766 260.251 296.279 263.162 301.441L288.956 347.188C292.03 352.64 289.397 359.544 283.473 361.565Z" fill="#93AFC7"/>
<path d="M154.467 344.677C159.091 346.579 159.876 353.606 157.724 357.262" stroke="black" stroke-width="3" stroke-linecap="round"/>
<path d="M163.36 377.399C167.984 379.301 168.77 386.328 166.617 389.984" stroke="black" stroke-width="3" stroke-linecap="round"/>
<path d="M375.218 396.082L298.22 434.756C293.479 437.138 287.704 435.402 285.061 430.802L265.948 397.538C263.635 393.512 264.397 388.425 267.787 385.253L326.262 330.551C330.583 326.509 337.45 327.082 341.041 331.785L378.678 381.077C382.481 386.058 380.818 393.269 375.218 396.082Z" fill="#E6E6E6"/>
<path d="M375.218 386.082L298.22 424.756C293.479 427.138 287.704 425.402 285.061 420.802L265.948 387.538C263.635 383.512 264.397 378.425 267.787 375.253L326.262 320.551C330.583 316.509 337.45 317.082 341.041 321.785L378.678 371.077C382.481 376.058 380.818 383.269 375.218 386.082Z" fill="#F5F5F5"/>
<circle cx="232.345" cy="416.233" r="49.242" transform="rotate(-90.4212 232.345 416.233)" fill="#FED1A8"/>
<path d="M216.107 446.533C222.452 446.133 234.92 448.875 244.512 459.694C244.864 460.09 244.835 460.697 244.452 461.063C240.613 464.741 233.892 471.17 225.216 471.21C224.874 471.211 224.545 471.386 224.345 471.663C215.424 484.058 198.384 473.44 194.011 467.905C193.624 467.415 192.893 467.3 192.568 467.832C190.498 471.227 191.61 479.08 189.713 480.131C189.666 480.157 189.613 480.175 189.56 480.187C185.658 481.061 182.459 470.804 183.9 464.542C184.143 463.484 182.611 460.908 181.526 460.902C165.303 460.821 160.212 445.779 159.644 436.838C159.61 436.307 160.016 435.859 160.547 435.897C162.512 436.039 166.234 436.908 170.692 439.677C162.598 433.051 154.332 402.939 164.977 389.153C165.575 388.378 167.303 389.012 167.526 389.966C167.702 390.716 167.922 391.517 168.167 392.287C168.481 393.272 169.615 392.979 169.76 391.955C171.112 382.376 180.34 368.585 174.758 357.491C174.48 356.94 174.713 356.249 175.294 356.042C190.196 350.736 203.577 357.925 207.751 364.672C207.961 365.011 208.333 365.212 208.731 365.193C213.955 364.942 224.375 366.782 230.717 375.816C231.206 376.513 230.583 377.419 229.736 377.325C205.849 374.684 198.314 402.875 197.458 418.558C197.429 419.086 197.826 419.531 198.353 419.489C200.657 419.302 204.732 417.796 208.152 412.728C208.327 412.47 208.613 412.281 208.919 412.34C212.741 413.075 215.019 426.074 212.775 443.569C212.641 444.615 215.054 446.6 216.107 446.533Z" fill="#4F3424" stroke="#593F2C"/>
<path d="M240.497 382.911C244.497 385.911 243.497 392.911 240.497 395.911" stroke="black" stroke-width="3" stroke-linecap="round"/>
<path d="M244.497 422.911C248.497 425.911 247.497 432.911 244.497 435.911" stroke="black" stroke-width="3" stroke-linecap="round"/>
<defs>
<linearGradient id="paint0_linear_138_635" x1="249.5" y1="192" x2="249.5" y2="324" gradientUnits="userSpaceOnUse">
<stop stop-color="white" stop-opacity="0"/>
<stop offset="1" stop-color="white"/>
</linearGradient>
</defs>
</svg>
