<svg width="152" height="258" viewBox="0 0 152 258" fill="none" xmlns="http://www.w3.org/2000/svg">
<path d="M31 38.008C30 53.508 34.5 89.508 36.5 124.508C37.487 139.508 140.5 141.508 136.5 124.508C132.5 107.508 125.5 61.508 122 38.008C118.5 14.508 105.5 0.508016 76.5 0.00801645C47.5 -0.491984 32 22.508 31 38.008Z" fill="#4F3424"/>
<path d="M66.5 192.508C66.5 205.008 65 219.508 63 248.008M63 248.008C65.5 255.008 53.5 250.508 53.5 248.008C53.5 245.508 61.5 244.008 63 248.008Z" stroke="black" stroke-width="6"/>
<path d="M101.657 250.008C104.157 257.008 92.1574 253.508 92.1574 251.008C92.1574 248.508 100.157 246.008 101.657 250.008Z" fill="black"/>
<path d="M93.1574 190.008C94.1574 200.008 96.1574 221.008 101.657 250.008M101.657 250.008C104.157 257.008 92.1574 253.508 92.1574 251.008C92.1574 248.508 100.157 246.008 101.657 250.008Z" stroke="black" stroke-width="6"/>
<rect width="10" height="25" transform="matrix(-1 0 0 1 81 76.0081)" fill="#DFB084"/>
<circle r="37.5" transform="matrix(-1 0 0 1 76.5 45.5081)" fill="#FED1A8"/>
<circle r="5" transform="matrix(-1 0 0 1 56 50.0081)" fill="black"/>
<path d="M106.377 110.623C106.168 99.7297 97.2767 91.0081 86.3809 91.0081H65.6191C54.7233 91.0081 45.8323 99.7297 45.6228 110.624L44.196 184.816C44.0884 190.413 48.5961 195.008 54.1942 195.008H97.8058C103.404 195.008 107.912 190.413 107.804 184.816L106.377 110.623Z" fill="#93AFC7"/>
<path d="M49 107.008C37 143.5 26 86 26 66.5" stroke="#7E99B0" stroke-width="10" stroke-linecap="round"/>
<path d="M103.445 109.008C116 154.5 75 84 75 63.5" stroke="#7E99B0" stroke-width="10" stroke-linecap="round"/>
<path d="M116 48.5079C113 38.0079 81.5 17.5079 73 7.00793C77.5 6.1746 89.4 6.10793 101 12.5079C115.5 20.5079 119 59.0079 116 48.5079Z" fill="#4F3424"/>
<path d="M34.8992 49.1947C37.6272 38.6216 66.2708 17.979 74 7.40595C69.9081 6.56682 59.0871 6.49969 48.539 12.9442C35.3539 20.9999 32.1713 59.7678 34.8992 49.1947Z" fill="#4F3424"/>
<path d="M74.5 53.5V52.2071L75.7929 53.5H74.5Z" stroke="#504646"/>
<path d="M99 52.6382C96 48.6382 89 48.5 86 51.5" stroke="black" stroke-width="3" stroke-linecap="round"/>
<rect x="30" y="54" width="47" height="33" fill="#504646"/>
<rect x="27" y="51" width="47" height="33" fill="#D9D9D9"/>
<circle cx="49.5" cy="67.5" r="9.5" fill="#504646" stroke="black" stroke-width="4"/>
<path d="M29.5 85.7929L28.2071 84.5H29.5V85.7929Z" stroke="#504646"/>
<rect x="29" y="49" width="6" height="2" fill="#D9D9D9"/>
<rect x="29" y="50" width="6" height="1" fill="#504646"/>
</svg>
