<svg width="599" height="468" viewBox="0 0 599 468" fill="none" xmlns="http://www.w3.org/2000/svg">
<path d="M414 355.5C442 305.5 265 213 321 156C288.833 163.833 216.8 206.7 216 229.5C215 258 273.5 283.5 273.5 327.5C273.5 367.5 174 394.5 104 426H321C336.5 419.167 391.6 395.5 414 355.5Z" fill="#E5B071" stroke="#D9D9D9"/>
<rect x="35" y="296" width="499" height="132" fill="url(#paint0_linear_138_697)"/>
<path d="M152.379 27.5C154.303 24.1667 159.114 24.1667 161.039 27.5L194.909 86.1654C196.834 89.4987 194.428 93.6654 190.579 93.6654H122.838C118.989 93.6654 116.584 89.4987 118.508 86.1654L152.379 27.5Z" fill="#F5F5F5"/>
<path d="M152.378 54.9253C154.303 51.592 159.114 51.592 161.039 54.9253L213.689 146.118C215.613 149.452 213.208 153.618 209.359 153.618H104.058C100.209 153.618 97.8037 149.452 99.7282 146.118L152.378 54.9253Z" fill="#F5F5F5"/>
<path d="M152.378 91.9172C154.303 88.5839 159.114 88.5839 161.039 91.9172L229.707 210.854C231.632 214.188 229.226 218.354 225.377 218.354H88.0403C84.1912 218.354 81.7856 214.188 83.7101 210.854L152.378 91.9172Z" fill="#F5F5F5"/>
<path d="M401.621 7.49999C399.697 4.16666 394.886 4.16667 392.961 7.5L359.091 66.1654C357.166 69.4987 359.572 73.6654 363.421 73.6654H431.162C435.011 73.6654 437.416 69.4987 435.492 66.1654L401.621 7.49999Z" fill="#D5DDE3"/>
<path d="M401.621 34.9253C399.697 31.592 394.886 31.592 392.961 34.9253L340.311 126.118C338.386 129.452 340.792 133.618 344.641 133.618H449.942C453.791 133.618 456.196 129.452 454.272 126.118L401.621 34.9253Z" fill="#D5DDE3"/>
<path d="M401.621 71.9172C399.697 68.5839 394.886 68.5839 392.961 71.9172L324.293 190.854C322.368 194.188 324.774 198.354 328.623 198.354H465.96C469.809 198.354 472.214 194.188 470.29 190.854L401.621 71.9172Z" fill="#D5DDE3"/>
<path d="M95.9848 74.5C97.9093 71.1667 102.721 71.1667 104.645 74.5L143.766 142.26C145.691 145.593 143.285 149.76 139.436 149.76H61.1938C57.3448 149.76 54.9392 145.593 56.8637 142.26L95.9848 74.5Z" fill="#D5DDE3"/>
<path d="M95.9848 105.311C97.9093 101.978 102.721 101.978 104.645 105.311L164.865 209.614C166.789 212.948 164.383 217.114 160.534 217.114H40.0955C36.2465 217.114 33.8409 212.948 35.7654 209.614L95.9848 105.311Z" fill="#D5DDE3"/>
<path d="M95.9848 146.87C97.9093 143.537 102.721 143.537 104.645 146.87L182.86 282.342C184.785 285.676 182.379 289.842 178.53 289.842H22.0999C18.2509 289.842 15.8453 285.676 17.7698 282.342L95.9848 146.87Z" fill="#D5DDE3"/>
<path d="M502.645 76.5C500.72 73.1667 495.909 73.1667 493.985 76.5L454.864 144.26C452.939 147.593 455.345 151.76 459.194 151.76H537.436C541.285 151.76 543.691 147.593 541.766 144.26L502.645 76.5Z" fill="#D9D9D9"/>
<path d="M502.645 107.311C500.721 103.978 495.909 103.978 493.985 107.311L433.765 211.614C431.841 214.948 434.246 219.114 438.095 219.114H558.534C562.383 219.114 564.789 214.948 562.864 211.614L502.645 107.311Z" fill="#D9D9D9"/>
<path d="M502.645 148.87C500.721 145.537 495.909 145.537 493.985 148.87L415.77 284.342C413.845 287.676 416.251 291.842 420.1 291.842H576.53C580.379 291.842 582.785 287.676 580.86 284.342L502.645 148.87Z" fill="#D9D9D9"/>
<path d="M401.551 144.5C399.626 141.167 394.815 141.167 392.89 144.5L374.772 175.882C372.848 179.215 375.253 183.382 379.102 183.382H415.339C419.188 183.382 421.593 179.215 419.669 175.882L401.551 144.5Z" fill="#D9D9D9"/>
<path d="M401.551 161.768C399.626 158.434 394.815 158.434 392.89 161.768L362.948 213.63C361.023 216.963 363.429 221.13 367.278 221.13H427.163C431.012 221.13 433.418 216.963 431.493 213.63L401.551 161.768Z" fill="#D9D9D9"/>
<path d="M401.551 185.059C399.626 181.726 394.815 181.726 392.89 185.059L352.862 254.39C350.938 257.723 353.343 261.89 357.192 261.89H437.249C441.098 261.89 443.503 257.723 441.579 254.39L401.551 185.059Z" fill="#D9D9D9"/>
<path d="M189.725 91.5C191.65 88.1667 196.461 88.1667 198.385 91.5L246.433 174.721C248.357 178.054 245.952 182.221 242.103 182.221H146.008C142.159 182.221 139.753 178.054 141.678 174.721L189.725 91.5Z" fill="#D9D9D9"/>
<path d="M189.725 128.067C191.649 124.734 196.461 124.734 198.385 128.067L271.472 254.657C273.397 257.991 270.991 262.158 267.142 262.158H120.968C117.119 262.158 114.713 257.991 116.638 254.658L189.725 128.067Z" fill="#D9D9D9"/>
<path d="M189.725 177.39C191.65 174.056 196.461 174.056 198.385 177.39L292.83 340.972C294.754 344.306 292.349 348.472 288.5 348.472H99.6106C95.7616 348.472 93.356 344.306 95.2805 340.972L189.725 177.39Z" fill="#D9D9D9"/>
<path d="M459.385 156.5C457.461 153.167 452.65 153.167 450.725 156.5L403.63 238.071C401.706 241.404 404.111 245.571 407.96 245.571H502.15C505.999 245.571 508.405 241.404 506.48 238.071L459.385 156.5Z" fill="#F5F5F5"/>
<path d="M459.385 192.453C457.461 189.119 452.65 189.119 450.725 192.453L379.011 316.665C377.087 319.998 379.492 324.165 383.341 324.165H526.769C530.618 324.165 533.024 319.998 531.099 316.665L459.385 192.453Z" fill="#F5F5F5"/>
<path d="M459.385 240.947C457.461 237.613 452.65 237.613 450.725 240.947L358.013 401.53C356.088 404.863 358.494 409.03 362.343 409.03H547.768C551.617 409.03 554.022 404.863 552.098 401.53L459.385 240.947Z" fill="#F5F5F5"/>
<path d="M302.672 252.469C302.1 261.338 304.675 281.936 305.819 301.963C306.384 310.545 365.326 311.69 363.037 301.963C360.748 292.236 356.743 265.915 354.74 252.469C352.738 239.023 345.299 231.012 328.706 230.726C312.113 230.44 303.244 243.6 302.672 252.469Z" fill="#4F3424"/>
<path d="M322.984 340.871C322.984 348.023 322.126 356.32 320.982 372.627M320.982 372.627C322.412 376.632 315.546 374.057 315.546 372.627C315.546 371.196 320.124 370.338 320.982 372.627Z" stroke="black" stroke-width="6"/>
<path d="M343.101 373.771C344.531 377.776 337.665 375.774 337.665 374.343C337.665 372.913 342.242 371.482 343.101 373.771Z" fill="black"/>
<path d="M338.237 339.44C338.809 345.162 339.954 357.178 343.101 373.771M343.101 373.771C344.531 377.776 337.665 375.774 337.665 374.343C337.665 372.913 342.242 371.482 343.101 373.771Z" stroke="black" stroke-width="6"/>
<rect width="5.72179" height="14.3045" transform="matrix(-1 0 0 1 331.281 274.212)" fill="#DFB084"/>
<circle r="21.4567" transform="matrix(-1 0 0 1 328.706 256.76)" fill="#FED1A8"/>
<circle r="2.8609" transform="matrix(-1 0 0 1 336.431 259.335)" fill="black"/>
<circle r="2.8609" transform="matrix(-1 0 0 1 316.977 259.335)" fill="black"/>
<path d="M314.116 291.373C308.851 309.048 306.595 318.03 299.239 336.575" stroke="#FED1A8" stroke-width="10" stroke-linecap="round"/>
<path d="M344.124 293.094C348.415 307.398 350.418 319.7 349.273 338.01" stroke="#FED1A8" stroke-width="10" stroke-linecap="round"/>
<mask id="mask0_138_697" style="mask-type:alpha" maskUnits="userSpaceOnUse" x="284" y="271" width="88" height="64">
<ellipse rx="43.4856" ry="31.7559" transform="matrix(-1 0 0 1 328.42 303.107)" fill="#DFB084"/>
</mask>
<g mask="url(#mask0_138_697)">
<path d="M314.116 291.373C308.851 309.048 306.219 318.61 299.239 336.575" stroke="#7E99B0" stroke-width="11" stroke-linecap="round"/>
<path d="M344.124 293.094C348.415 307.398 350.418 319.7 349.273 338.01" stroke="#7E99B0" stroke-width="10" stroke-linecap="round"/>
</g>
<path d="M345.916 299.957C345.732 290.426 337.953 282.795 328.42 282.795V282.795C318.887 282.795 311.108 290.426 310.925 299.957L310.306 332.109C310.199 337.706 314.706 342.301 320.305 342.301H336.536C342.134 342.301 346.641 337.706 346.534 332.109L345.916 299.957Z" fill="#93AFC7"/>
<path d="M351.307 258.477C349.591 252.469 331.567 240.739 326.704 234.731C329.278 234.255 336.087 234.217 342.725 237.878C351.021 242.456 353.024 264.485 351.307 258.477Z" fill="#4F3424"/>
<path d="M304.903 258.87C306.464 252.82 322.853 241.009 327.276 234.959C324.935 234.479 318.743 234.441 312.708 238.128C305.163 242.737 303.342 264.919 304.903 258.87Z" fill="#4F3424"/>
<path d="M264.05 340.871C264.05 348.023 263.192 356.32 262.047 372.627M262.047 372.627C263.478 376.632 256.612 374.057 256.612 372.627C256.612 371.196 261.189 370.338 262.047 372.627Z" stroke="black" stroke-width="6"/>
<path d="M284.166 373.771C285.597 377.776 278.73 375.774 278.73 374.343C278.73 372.913 283.308 371.482 284.166 373.771Z" fill="black"/>
<path d="M279.303 339.44C279.875 345.162 281.019 357.178 284.166 373.771M284.166 373.771C285.597 377.776 278.73 375.774 278.73 374.343C278.73 372.913 283.308 371.482 284.166 373.771Z" stroke="black" stroke-width="6"/>
<rect width="5.72179" height="14.3045" transform="matrix(-1 0 0 1 272.346 274.212)" fill="#DFB084"/>
<circle r="21.4567" transform="matrix(-1 0 0 1 269.772 256.761)" fill="#FED1A8"/>
<circle r="2.8609" transform="matrix(-1 0 0 1 277.496 259.335)" fill="black"/>
<circle r="2.8609" transform="matrix(-1 0 0 1 258.042 259.335)" fill="black"/>
<path d="M254.037 291.949C249.745 306.254 247.743 318.556 248.887 336.866" stroke="#FED1A8" stroke-width="10" stroke-linecap="round"/>
<path d="M284.934 293.089C288.368 312.257 291.515 318.551 297.33 336.575" stroke="#FED1A8" stroke-width="10" stroke-linecap="round"/>
<mask id="mask1_138_697" style="mask-type:alpha" maskUnits="userSpaceOnUse" x="226" y="271" width="87" height="64">
<ellipse rx="43.4856" ry="31.7559" transform="matrix(-1 0 0 1 269.486 303.107)" fill="#DFB084"/>
</mask>
<g mask="url(#mask1_138_697)">
<path d="M254.037 291.949C249.745 306.254 247.743 318.556 248.887 336.866" stroke="#E4E4E4" stroke-width="10" stroke-linecap="round"/>
<path d="M284.934 293.089C288.654 312.543 292.373 323.129 297.33 336.575" stroke="#E4E4E4" stroke-width="11" stroke-linecap="round"/>
</g>
<path d="M286.981 299.957C286.798 290.426 279.019 282.795 269.486 282.795V282.795C259.952 282.795 252.173 290.426 251.99 299.957L251.372 332.109C251.264 337.706 255.772 342.301 261.37 342.301H277.601C283.199 342.301 287.707 337.706 287.599 332.109L286.981 299.957Z" fill="#F5F5F5"/>
<path d="M282.971 254.802C283.266 258.034 284.68 262.727 288.303 266.578C288.701 267.001 289.379 266.963 289.746 266.513C291.329 264.579 293.62 261.506 293.701 257.656C293.708 257.337 293.854 257.033 294.092 256.821C298.906 252.534 294.99 244.881 292.533 242.312C292.135 241.895 292.043 241.223 292.571 240.992C294.176 240.29 296.998 240.628 297.461 239.807C297.485 239.765 297.499 239.716 297.507 239.668C297.712 238.401 295.854 237.306 293.788 236.915C292.7 236.71 288.983 233.943 288.716 232.869C287.362 227.421 282.448 225.442 279.061 225.066C278.527 225.007 278.087 225.426 278.163 225.958C278.312 226.997 278.749 228.613 279.789 230.489C276.929 226.57 264.202 222.652 258.088 227.557C257.611 227.94 257.864 229.021 258.451 229.191C259.068 229.37 259.054 230.167 258.429 230.316C254.501 231.252 249.186 235.015 244.687 233.144C244.079 232.892 243.33 233.141 243.163 233.777C241.353 240.693 244.19 246.796 246.974 248.961C247.27 249.19 247.453 249.54 247.45 249.915C247.429 252.345 248.182 256.63 251.195 259.645C251.809 260.259 252.755 259.682 252.73 258.814C252.427 248.202 263.453 244.509 270.125 243.888C270.659 243.839 271.114 244.245 271.021 244.773C270.82 245.911 270.126 247.564 268.353 249.021C268.126 249.208 267.951 249.487 268.06 249.76C268.693 251.357 273.293 252.296 279.606 251.615C280.633 251.504 282.877 253.773 282.971 254.802Z" fill="#4F3424" stroke="#593F2C"/>
<path d="M104.649 252.5C106.573 249.167 111.385 249.167 113.309 252.5L137.028 293.583C138.953 296.916 136.547 301.083 132.698 301.083H85.2599C81.4109 301.083 79.0053 296.916 80.9298 293.583L104.649 252.5Z" fill="#F5F5F5"/>
<path d="M104.649 273.379C106.573 270.046 111.385 270.046 113.309 273.379L151.326 339.226C153.25 342.559 150.845 346.726 146.996 346.726H70.9626C67.1136 346.726 64.708 342.559 66.6325 339.226L104.649 273.379Z" fill="#F5F5F5"/>
<path d="M104.649 301.542C106.573 298.208 111.385 298.208 113.309 301.542L163.52 388.51C165.445 391.844 163.039 396.01 159.19 396.01H58.7677C54.9187 396.01 52.5131 391.844 54.4376 388.51L104.649 301.542Z" fill="#F5F5F5"/>
<path d="M551 22C439 88 160.5 89 63 22" stroke="#D9D9D9" stroke-width="2"/>
<path d="M85.0831 39.801C83.8887 42.2576 80.3523 45.6055 78.448 44.6796C76.5437 43.7537 76.9927 38.9047 78.1872 36.4481C79.3816 33.9915 81.8936 32.7506 83.7978 33.6764C85.7021 34.6023 86.2776 37.3444 85.0831 39.801Z" fill="#FFE071"/>
<path d="M129.442 55.9449C128.656 58.5608 125.699 62.4305 123.671 61.8206C121.644 61.2107 121.313 56.3522 122.099 53.7364C122.886 51.1206 125.168 49.4944 127.195 50.1043C129.223 50.7141 130.229 53.3291 129.442 55.9449Z" fill="#FFE071"/>
<path d="M176.16 67.6018C175.521 70.2577 172.786 74.2872 170.728 73.7921C168.669 73.297 168.066 68.4648 168.704 65.8089C169.343 63.153 171.53 61.4014 173.588 61.8964C175.647 62.3915 176.798 64.9459 176.16 67.6018Z" fill="#FFE071"/>
<path d="M223.128 73.2883C222.7 75.9861 220.29 80.2179 218.199 79.886C216.108 79.554 215.127 74.7841 215.555 72.0862C215.983 69.3884 218.026 67.4705 220.117 67.8024C222.208 68.1344 223.556 70.5905 223.128 73.2883Z" fill="#FFE071"/>
<path d="M271.623 76.6251C271.514 79.3545 269.618 83.8397 267.502 83.7553C265.386 83.6709 263.852 79.0489 263.961 76.3195C264.07 73.5901 265.874 71.4458 267.989 71.5302C270.105 71.6146 271.732 73.8956 271.623 76.6251Z" fill="#FFE071"/>
<path d="M320.76 76.6868C321.055 79.4024 319.84 84.1183 317.735 84.347C315.63 84.5756 313.432 80.2303 313.137 77.5147C312.842 74.7991 314.309 72.4123 316.414 72.1837C318.519 71.9551 320.465 73.9712 320.76 76.6868Z" fill="#FFE071"/>
<path d="M370.157 73.917C370.452 76.6326 369.238 81.3485 367.133 81.5772C365.028 81.8058 362.829 77.4606 362.534 74.7449C362.239 72.0293 363.706 69.6425 365.812 69.4139C367.917 69.1853 369.862 71.2014 370.157 73.917Z" fill="#FFE071"/>
<path d="M419.157 68.917C419.452 71.6326 418.238 76.3485 416.133 76.5772C414.028 76.8058 411.829 72.4606 411.534 69.7449C411.239 67.0293 412.706 64.6425 414.812 64.4139C416.917 64.1853 418.862 66.2014 419.157 68.917Z" fill="#FFE071"/>
<path d="M467.959 59.5181C468.554 62.1843 467.87 67.0058 465.803 67.4665C463.736 67.9271 461.069 63.8525 460.475 61.1864C459.881 58.5202 461.074 55.9854 463.141 55.5247C465.208 55.0641 467.365 56.8519 467.959 59.5181Z" fill="#FFE071"/>
<path d="M517.836 44.3142C518.587 46.9404 518.191 51.794 516.155 52.3767C514.12 52.9593 511.215 49.0504 510.464 46.4242C509.712 43.7981 510.753 41.1968 512.789 40.6142C514.824 40.0315 517.084 41.6881 517.836 44.3142Z" fill="#FFE071"/>
<defs>
<linearGradient id="paint0_linear_138_697" x1="284.5" y1="296" x2="284.5" y2="428" gradientUnits="userSpaceOnUse">
<stop stop-color="white" stop-opacity="0"/>
<stop offset="1" stop-color="white"/>
</linearGradient>
</defs>
</svg>
